NotoSerifTamil-Black.ufo
<glyph name="comma" format="2">
  <advance width="326"/>
  <unicode hex="002C"/>
  <outline>
    <contour>
      <point x="56" y="-154" type="line"/>
      <point x="194" y="-119"/>
      <point x="246" y="-43"/>
      <point x="246" y="42" type="curve" smooth="yes"/>
      <point x="246" y="119"/>
      <point x="216" y="169"/>
      <point x="149" y="169" type="curve" smooth="yes"/>
      <point x="105" y="169"/>
      <point x="66" y="143"/>
      <point x="66" y="93" type="curve" smooth="yes"/>
      <point x="66" y="-1"/>
      <point x="139" y="11"/>
      <point x="139" y="-25" type="curve" smooth="yes"/>
      <point x="139" y="-61"/>
      <point x="109" y="-74"/>
      <point x="56" y="-95" type="curve"/>
    </contour>
  </outline>
</glyph>
<glyph name="period" format="2">
  <advance width="326"/>
  <unicode hex="002E"/>
  <outline>
    <contour>
      <point x="163" y="-9" type="curve" smooth="yes"/>
      <point x="214" y="-9"/>
      <point x="259" y="13"/>
      <point x="259" y="80" type="curve" smooth="yes"/>
      <point x="259" y="148"/>
      <point x="214" y="169"/>
      <point x="163" y="169" type="curve" smooth="yes"/>
      <point x="109" y="169"/>
      <point x="67" y="148"/>
      <point x="67" y="80" type="curve" smooth="yes"/>
      <point x="67" y="13"/>
      <point x="109" y="-9"/>
    </contour>
  </outline>
</glyph>
<glyph name="zero" format="2">
  <advance width="559"/>
  <unicode hex="0030"/>
  <outline>
    <contour>
      <point x="280" y="-10" type="curve" smooth="yes"/>
      <point x="467" y="-10"/>
      <point x="533" y="137"/>
      <point x="533" y="358" type="curve" smooth="yes"/>
      <point x="533" y="580"/>
      <point x="467" y="724"/>
      <point x="281" y="724" type="curve" smooth="yes"/>
      <point x="84" y="724"/>
      <point x="26" y="580"/>
      <point x="26" y="359" type="curve" smooth="yes"/>
      <point x="26" y="137"/>
      <point x="84" y="-10"/>
    </contour>
    <contour>
      <point x="280" y="63" type="curve" smooth="yes"/>
      <point x="222" y="63"/>
      <point x="218" y="172"/>
      <point x="218" y="358" type="curve" smooth="yes"/>
      <point x="218" y="544"/>
      <point x="222" y="651"/>
      <point x="281" y="651" type="curve" smooth="yes"/>
      <point x="337" y="651"/>
      <point x="340" y="544"/>
      <point x="340" y="358" type="curve" smooth="yes"/>
      <point x="340" y="172"/>
      <point x="337" y="63"/>
    </contour>
  </outline>
</glyph>
<glyph name="one" format="2">
  <advance width="559"/>
  <unicode hex="0031"/>
  <outline>
    <contour>
      <point x="77" y="0" type="line"/>
      <point x="524" y="0" type="line"/>
      <point x="524" y="61" type="line"/>
      <point x="449" y="61" type="line" smooth="yes"/>
      <point x="410" y="61"/>
      <point x="401" y="94"/>
      <point x="401" y="121" type="curve" smooth="yes"/>
      <point x="401" y="718" type="line"/>
      <point x="254" y="718" type="line"/>
      <point x="184" y="666" type="line" smooth="yes"/>
      <point x="118" y="617"/>
      <point x="64" y="599"/>
      <point x="24" y="589" type="curve"/>
      <point x="24" y="534"/>
      <point x="54" y="500"/>
      <point x="88" y="500" type="curve" smooth="yes"/>
      <point x="128" y="500"/>
      <point x="166" y="542"/>
      <point x="217" y="604" type="curve"/>
      <point x="217" y="121" type="line" smooth="yes"/>
      <point x="217" y="81"/>
      <point x="202" y="61"/>
      <point x="170" y="61" type="curve" smooth="yes"/>
      <point x="77" y="61" type="line"/>
    </contour>
  </outline>
</glyph>
<glyph name="two" format="2">
  <advance width="559"/>
  <unicode hex="0032"/>
  <outline>
    <contour>
      <point x="27" y="0" type="line"/>
      <point x="528" y="0" type="line"/>
      <point x="533" y="237" type="line"/>
      <point x="461" y="237" type="line"/>
      <point x="450" y="197" type="line" smooth="yes"/>
      <point x="437" y="148"/>
      <point x="395" y="132"/>
      <point x="368" y="132" type="curve" smooth="yes"/>
      <point x="154" y="132" type="line"/>
      <point x="188" y="159" type="line" smooth="yes"/>
      <point x="473" y="386"/>
      <point x="508" y="456"/>
      <point x="508" y="549" type="curve" smooth="yes"/>
      <point x="508" y="653"/>
      <point x="426" y="724"/>
      <point x="260" y="724" type="curve" smooth="yes"/>
      <point x="101" y="724"/>
      <point x="27" y="646"/>
      <point x="27" y="577" type="curve" smooth="yes"/>
      <point x="27" y="494"/>
      <point x="99" y="473"/>
      <point x="178" y="473" type="curve"/>
      <point x="178" y="613"/>
      <point x="209" y="655"/>
      <point x="260" y="655" type="curve" smooth="yes"/>
      <point x="291" y="655"/>
      <point x="320" y="633"/>
      <point x="320" y="550" type="curve" smooth="yes"/>
      <point x="320" y="446"/>
      <point x="289" y="377"/>
      <point x="157" y="245" type="curve" smooth="yes"/>
      <point x="27" y="115" type="line"/>
    </contour>
  </outline>
</glyph>
<glyph name="six" format="2">
  <advance width="559"/>
  <unicode hex="0036"/>
  <outline>
    <contour>
      <point x="293" y="-10" type="curve" smooth="yes"/>
      <point x="457" y="-10"/>
      <point x="536" y="88"/>
      <point x="536" y="232" type="curve" smooth="yes"/>
      <point x="536" y="364"/>
      <point x="457" y="441"/>
      <point x="336" y="441" type="curve" smooth="yes"/>
      <point x="266" y="441"/>
      <point x="238" y="422"/>
      <point x="209" y="408" type="curve"/>
      <point x="218" y="559"/>
      <point x="249" y="657"/>
      <point x="312" y="657" type="curve" smooth="yes"/>
      <point x="357" y="657"/>
      <point x="380" y="592"/>
      <point x="380" y="519" type="curve"/>
      <point x="481" y="519"/>
      <point x="516" y="561"/>
      <point x="516" y="610" type="curve" smooth="yes"/>
      <point x="516" y="670"/>
      <point x="460" y="724"/>
      <point x="318" y="724" type="curve" smooth="yes"/>
      <point x="129" y="724"/>
      <point x="33" y="572"/>
      <point x="33" y="329" type="curve" smooth="yes"/>
      <point x="33" y="97"/>
      <point x="134" y="-10"/>
    </contour>
    <contour>
      <point x="296" y="64" type="curve" smooth="yes"/>
      <point x="249" y="64"/>
      <point x="210" y="146"/>
      <point x="210" y="332" type="curve"/>
      <point x="233" y="353"/>
      <point x="263" y="368"/>
      <point x="287" y="368" type="curve" smooth="yes"/>
      <point x="329" y="368"/>
      <point x="359" y="326"/>
      <point x="359" y="222" type="curve" smooth="yes"/>
      <point x="359" y="112"/>
      <point x="332" y="64"/>
    </contour>
  </outline>
</glyph>
<glyph name="seven" format="2">
  <advance width="559"/>
  <unicode hex="0037"/>
  <outline>
    <contour>
      <point x="141" y="0" type="line"/>
      <point x="253" y="0" type="line"/>
      <point x="521" y="651" type="line"/>
      <point x="521" y="715" type="line"/>
      <point x="46" y="715" type="line"/>
      <point x="41" y="483" type="line"/>
      <point x="114" y="483" type="line"/>
      <point x="122" y="533" type="line" smooth="yes"/>
      <point x="127" y="566"/>
      <point x="144" y="584"/>
      <point x="180" y="584" type="curve" smooth="yes"/>
      <point x="419" y="584" type="line"/>
    </contour>
  </outline>
</glyph>
<glyph name="nine" format="2">
  <advance width="559"/>
  <unicode hex="0039"/>
  <outline>
    <contour>
      <point x="227" y="-9" type="curve"/>
      <point x="440" y="-9"/>
      <point x="526" y="161"/>
      <point x="526" y="388" type="curve"/>
      <point x="526" y="623"/>
      <point x="415" y="724"/>
      <point x="263" y="724" type="curve" smooth="yes"/>
      <point x="113" y="724"/>
      <point x="23" y="629"/>
      <point x="23" y="485" type="curve" smooth="yes"/>
      <point x="23" y="350"/>
      <point x="104" y="275"/>
      <point x="218" y="275" type="curve" smooth="yes"/>
      <point x="287" y="275"/>
      <point x="324" y="301"/>
      <point x="357" y="343" type="curve"/>
      <point x="350" y="158"/>
      <point x="309" y="60"/>
      <point x="235" y="60" type="curve" smooth="yes"/>
      <point x="165" y="60"/>
      <point x="140" y="120"/>
      <point x="120" y="193" type="curve"/>
      <point x="68" y="185"/>
      <point x="49" y="147"/>
      <point x="49" y="115" type="curve" smooth="yes"/>
      <point x="49" y="47"/>
      <point x="100" y="-9"/>
    </contour>
    <contour>
      <point x="277" y="357" type="curve" smooth="yes"/>
      <point x="226" y="357"/>
      <point x="199" y="409"/>
      <point x="199" y="488" type="curve" smooth="yes"/>
      <point x="199" y="596"/>
      <point x="226" y="648"/>
      <point x="274" y="648" type="curve" smooth="yes"/>
      <point x="326" y="648"/>
      <point x="355" y="577"/>
      <point x="356" y="413" type="curve"/>
      <point x="334" y="375"/>
      <point x="306" y="357"/>
    </contour>
  </outline>
</glyph>
<glyph name="braceleft" format="2">
  <advance width="452"/>
  <unicode hex="007B"/>
  <outline>
    <contour>
      <point x="320" y="-123" type="curve" smooth="yes"/>
      <point x="437" y="-123" type="line"/>
      <point x="437" y="-62" type="line"/>
      <point x="391" y="-62" type="line" smooth="yes"/>
      <point x="336" y="-62"/>
      <point x="328" y="-29"/>
      <point x="328" y="30" type="curve" smooth="yes"/>
      <point x="328" y="200" type="line" smooth="yes"/>
      <point x="328" y="256"/>
      <point x="295" y="290"/>
      <point x="219" y="314" type="curve"/>
      <point x="219" y="327" type="line"/>
      <point x="298" y="349"/>
      <point x="328" y="383"/>
      <point x="328" y="439" type="curve" smooth="yes"/>
      <point x="328" y="609" type="line" smooth="yes"/>
      <point x="328" y="667"/>
      <point x="336" y="700"/>
      <point x="391" y="700" type="curve" smooth="yes"/>
      <point x="437" y="700" type="line"/>
      <point x="437" y="760" type="line"/>
      <point x="320" y="760" type="line" smooth="yes"/>
      <point x="195" y="760"/>
      <point x="130" y="706"/>
      <point x="130" y="612" type="curve" smooth="yes"/>
      <point x="130" y="441" type="line" smooth="yes"/>
      <point x="130" y="371"/>
      <point x="79" y="359"/>
      <point x="15" y="357" type="curve"/>
      <point x="15" y="282" type="line"/>
      <point x="79" y="279"/>
      <point x="130" y="269"/>
      <point x="130" y="197" type="curve" smooth="yes"/>
      <point x="130" y="28" type="line" smooth="yes"/>
      <point x="130" y="-65"/>
      <point x="195" y="-123"/>
    </contour>
  </outline>
</glyph>
<glyph name="threesuperior" format="2">
  <advance width="400"/>
  <unicode hex="00B3"/>
  <outline>
    <contour>
      <point x="176" y="380" type="curve" smooth="yes"/>
      <point x="314" y="380"/>
      <point x="379" y="433"/>
      <point x="379" y="511" type="curve" smooth="yes"/>
      <point x="379" y="576"/>
      <point x="321" y="603"/>
      <point x="261" y="612" type="curve"/>
      <point x="261" y="617" type="line"/>
      <point x="314" y="630"/>
      <point x="362" y="663"/>
      <point x="362" y="721" type="curve" smooth="yes"/>
      <point x="362" y="783"/>
      <point x="315" y="824"/>
      <point x="196" y="824" type="curve" smooth="yes"/>
      <point x="78" y="824"/>
      <point x="30" y="786"/>
      <point x="30" y="736" type="curve" smooth="yes"/>
      <point x="30" y="701"/>
      <point x="64" y="688"/>
      <point x="128" y="688" type="curve"/>
      <point x="128" y="734"/>
      <point x="132" y="770"/>
      <point x="175" y="770" type="curve" smooth="yes"/>
      <point x="204" y="770"/>
      <point x="221" y="748"/>
      <point x="221" y="714" type="curve" smooth="yes"/>
      <point x="221" y="665"/>
      <point x="199" y="637"/>
      <point x="149" y="637" type="curve" smooth="yes"/>
      <point x="112" y="637" type="line"/>
      <point x="112" y="579" type="line"/>
      <point x="149" y="579" type="line" smooth="yes"/>
      <point x="212" y="579"/>
      <point x="233" y="552"/>
      <point x="233" y="514" type="curve" smooth="yes"/>
      <point x="233" y="459"/>
      <point x="202" y="442"/>
      <point x="163" y="442" type="curve" smooth="yes"/>
      <point x="119" y="442"/>
      <point x="97" y="471"/>
      <point x="97" y="524" type="curve"/>
      <point x="43" y="524"/>
      <point x="14" y="505"/>
      <point x="14" y="471" type="curve" smooth="yes"/>
      <point x="14" y="422"/>
      <point x="63" y="380"/>
    </contour>
  </outline>
</glyph>
<glyph name="divide" format="2">
  <advance width="559"/>
  <unicode hex="00F7"/>
  <outline>
    <contour>
      <point x="65" y="318" type="line"/>
      <point x="494" y="318" type="line"/>
      <point x="494" y="397" type="line"/>
      <point x="65" y="397" type="line"/>
    </contour>
    <contour>
      <point x="280" y="103" type="curve" smooth="yes"/>
      <point x="313" y="103"/>
      <point x="339" y="120"/>
      <point x="339" y="168" type="curve" smooth="yes"/>
      <point x="339" y="217"/>
      <point x="313" y="233"/>
      <point x="280" y="233" type="curve" smooth="yes"/>
      <point x="245" y="233"/>
      <point x="220" y="217"/>
      <point x="220" y="168" type="curve" smooth="yes"/>
      <point x="220" y="120"/>
      <point x="245" y="103"/>
    </contour>
    <contour>
      <point x="280" y="482" type="curve" smooth="yes"/>
      <point x="313" y="482"/>
      <point x="339" y="499"/>
      <point x="339" y="547" type="curve" smooth="yes"/>
      <point x="339" y="596"/>
      <point x="313" y="612"/>
      <point x="280" y="612" type="curve" smooth="yes"/>
      <point x="245" y="612"/>
      <point x="220" y="596"/>
      <point x="220" y="547" type="curve" smooth="yes"/>
      <point x="220" y="499"/>
      <point x="245" y="482"/>
    </contour>
  </outline>
</glyph>
<glyph name="udatta-deva" format="2">
  <unicode hex="0951"/>
  <anchor x="0" y="584" name="_vedic"/>
  <outline>
    <contour>
      <point x="-46" y="970" type="line"/>
      <point x="46" y="970" type="line"/>
      <point x="46" y="1178" type="line"/>
      <point x="-46" y="1178" type="line"/>
    </contour>
  </outline>
</glyph>
<glyph name="dbldanda-deva" format="2">
  <advance width="729"/>
  <unicode hex="0965"/>
  <outline>
    <contour>
      <point x="426" y="0" type="line"/>
      <point x="646" y="0" type="line"/>
      <point x="646" y="584" type="line"/>
      <point x="426" y="584" type="line"/>
    </contour>
    <contour>
      <point x="83" y="0" type="line"/>
      <point x="303" y="0" type="line"/>
      <point x="303" y="584" type="line"/>
      <point x="83" y="584" type="line"/>
    </contour>
  </outline>
</glyph>
<glyph name="ai-tamil" format="2">
  <advance width="1130"/>
  <unicode hex="0B90"/>
  <note>
uni0B90
</note>
  <anchor x="580" y="0" name="bottom"/>
  <anchor x="566" y="-335" name="nukta"/>
  <anchor x="575" y="584" name="top"/>
  <anchor x="573" y="584" name="vedic"/>
  <outline>
    <contour>
      <point x="326" y="-335" type="curve" smooth="yes"/>
      <point x="459" y="-335"/>
      <point x="545" y="-295"/>
      <point x="581" y="-190" type="curve"/>
      <point x="612" y="-311"/>
      <point x="731" y="-335"/>
      <point x="825" y="-335" type="curve" smooth="yes"/>
      <point x="957" y="-335"/>
      <point x="1081" y="-277"/>
      <point x="1081" y="-116" type="curve" smooth="yes"/>
      <point x="1081" y="-40"/>
      <point x="1051" y="19"/>
      <point x="1004" y="75" type="curve"/>
      <point x="934" y="28" type="line"/>
      <point x="975" y="-23"/>
      <point x="991" y="-59"/>
      <point x="991" y="-108" type="curve" smooth="yes"/>
      <point x="991" y="-215"/>
      <point x="915" y="-255"/>
      <point x="834" y="-255" type="curve" smooth="yes"/>
      <point x="736" y="-255"/>
      <point x="665" y="-211"/>
      <point x="665" y="-83" type="curve" smooth="yes"/>
      <point x="665" y="-18" type="line"/>
      <point x="494" y="-18" type="line"/>
      <point x="494" y="-99" type="line" smooth="yes"/>
      <point x="494" y="-179"/>
      <point x="458" y="-253"/>
      <point x="367" y="-253" type="curve" smooth="yes"/>
      <point x="276" y="-253"/>
      <point x="248" y="-195"/>
      <point x="248" y="-126" type="curve" smooth="yes"/>
      <point x="248" y="-16"/>
      <point x="298" y="44"/>
      <point x="602" y="70" type="curve" smooth="yes"/>
      <point x="908" y="96"/>
      <point x="1081" y="164"/>
      <point x="1081" y="360" type="curve" smooth="yes"/>
      <point x="1081" y="501"/>
      <point x="988" y="589"/>
      <point x="816" y="589" type="curve" smooth="yes"/>
      <point x="709" y="589"/>
      <point x="613" y="552"/>
      <point x="582" y="458" type="curve"/>
      <point x="545" y="548"/>
      <point x="457" y="589"/>
      <point x="333" y="589" type="curve" smooth="yes"/>
      <point x="165" y="589"/>
      <point x="54" y="484"/>
      <point x="54" y="343" type="curve" smooth="yes"/>
      <point x="54" y="228"/>
      <point x="140" y="149"/>
      <point x="257" y="149" type="curve" smooth="yes"/>
      <point x="354" y="149"/>
      <point x="432" y="194"/>
      <point x="432" y="285" type="curve" smooth="yes"/>
      <point x="432" y="363"/>
      <point x="375" y="409"/>
      <point x="297" y="409" type="curve" smooth="yes"/>
      <point x="208" y="409"/>
      <point x="136" y="354"/>
      <point x="129" y="226" type="curve"/>
      <point x="178" y="210" type="line"/>
      <point x="188" y="310"/>
      <point x="221" y="328"/>
      <point x="254" y="328" type="curve" smooth="yes"/>
      <point x="277" y="328"/>
      <point x="298" y="312"/>
      <point x="298" y="281" type="curve" smooth="yes"/>
      <point x="298" y="245"/>
      <point x="269" y="229"/>
      <point x="235" y="229" type="curve" smooth="yes"/>
      <point x="185" y="229"/>
      <point x="138" y="272"/>
      <point x="138" y="343" type="curve" smooth="yes"/>
      <point x="138" y="442"/>
      <point x="224" y="510"/>
      <point x="330" y="510" type="curve" smooth="yes"/>
      <point x="434" y="510"/>
      <point x="494" y="461"/>
      <point x="494" y="362" type="curve" smooth="yes"/>
      <point x="494" y="203" type="line"/>
      <point x="665" y="203" type="line"/>
      <point x="665" y="374" type="line" smooth="yes"/>
      <point x="665" y="458"/>
      <point x="705" y="507"/>
      <point x="774" y="507" type="curve" smooth="yes"/>
      <point x="842" y="507"/>
      <point x="881" y="464"/>
      <point x="881" y="368" type="curve" smooth="yes"/>
      <point x="881" y="216"/>
      <point x="821" y="148"/>
      <point x="480" y="120" type="curve" smooth="yes"/>
      <point x="258" y="102"/>
      <point x="49" y="48"/>
      <point x="49" y="-130" type="curve" smooth="yes"/>
      <point x="49" y="-262"/>
      <point x="156" y="-335"/>
    </contour>
  </outline>
</glyph>
<glyph name="tta-tamil" format="2">
  <advance width="1020"/>
  <unicode hex="0B9F"/>
  <note>
uni0B9F
</note>
  <anchor x="516" y="0" name="bottom"/>
  <anchor x="516" y="0" name="nukta"/>
  <anchor x="555" y="584" name="top"/>
  <anchor x="544" y="584" name="vedic"/>
  <outline>
    <contour>
      <point x="73" y="0" type="line"/>
      <point x="1015" y="0" type="line"/>
      <point x="1015" y="75" type="line"/>
      <point x="291" y="75" type="line"/>
      <point x="291" y="584" type="line"/>
      <point x="73" y="584" type="line"/>
    </contour>
  </outline>
</glyph>
<glyph name="pa-tamil" format="2">
  <advance width="1016"/>
  <unicode hex="0BAA"/>
  <note>
uni0BAA
</note>
  <anchor x="514" y="0" name="bottom"/>
  <anchor x="933" y="584" name="imatra"/>
  <anchor x="514" y="0" name="nukta"/>
  <anchor x="516" y="584" name="top"/>
  <anchor x="512" y="584" name="vedic"/>
  <outline>
    <contour>
      <point x="73" y="0" type="line"/>
      <point x="943" y="0" type="line"/>
      <point x="943" y="584" type="line"/>
      <point x="725" y="584" type="line"/>
      <point x="725" y="75" type="line"/>
      <point x="293" y="75" type="line"/>
      <point x="293" y="584" type="line"/>
      <point x="73" y="584" type="line"/>
    </contour>
  </outline>
</glyph>
<glyph name="ra-tamil" format="2">
  <advance width="715"/>
  <unicode hex="0BB0"/>
  <note>
uni0BB0
</note>
  <anchor x="350" y="0" name="bottom"/>
  <anchor x="618" y="584" name="imatra"/>
  <anchor x="350" y="-266" name="nukta"/>
  <anchor x="371" y="584" name="top"/>
  <anchor x="388" y="584" name="vedic"/>
  <outline>
    <contour>
      <point x="122" y="-295" type="line"/>
      <point x="564" y="13" type="line"/>
      <point x="564" y="509" type="line"/>
      <point x="703" y="509" type="line"/>
      <point x="703" y="584" type="line"/>
      <point x="78" y="584" type="line"/>
      <point x="78" y="0" type="line"/>
      <point x="162" y="0" type="line"/>
      <point x="162" y="509" type="line"/>
      <point x="347" y="509" type="line"/>
      <point x="347" y="-33" type="line"/>
      <point x="73" y="-225" type="line"/>
    </contour>
  </outline>
</glyph>
<glyph name="rra-tamil" format="2">
  <advance width="1027"/>
  <unicode hex="0BB1"/>
  <note>
uni0BB1
</note>
  <anchor x="599" y="0" name="bottom"/>
  <anchor x="596" y="-117" name="nukta"/>
  <anchor x="559" y="591" name="top"/>
  <anchor x="526" y="584" name="vedic"/>
  <outline>
    <contour>
      <point x="228" y="-312" type="curve"/>
      <point x="228" y="-212"/>
      <point x="260" y="-136"/>
      <point x="399" y="-136" type="curve" smooth="yes"/>
      <point x="537" y="-136" type="line" smooth="yes"/>
      <point x="746" y="-136"/>
      <point x="993" y="-49"/>
      <point x="993" y="255" type="curve" smooth="yes"/>
      <point x="993" y="460"/>
      <point x="873" y="591"/>
      <point x="675" y="591" type="curve" smooth="yes"/>
      <point x="559" y="591"/>
      <point x="468" y="539"/>
      <point x="441" y="441" type="curve"/>
      <point x="419" y="539"/>
      <point x="354" y="590"/>
      <point x="253" y="590" type="curve" smooth="yes"/>
      <point x="141" y="590"/>
      <point x="71" y="511"/>
      <point x="71" y="396" type="curve" smooth="yes"/>
      <point x="71" y="0" type="line"/>
      <point x="158" y="0" type="line"/>
      <point x="158" y="387" type="line" smooth="yes"/>
      <point x="158" y="466"/>
      <point x="185" y="508"/>
      <point x="241" y="508" type="curve" smooth="yes"/>
      <point x="303" y="508"/>
      <point x="327" y="461"/>
      <point x="327" y="386" type="curve" smooth="yes"/>
      <point x="327" y="0" type="line"/>
      <point x="550" y="0" type="line"/>
      <point x="550" y="374" type="line" smooth="yes"/>
      <point x="550" y="462"/>
      <point x="583" y="508"/>
      <point x="646" y="508" type="curve" smooth="yes"/>
      <point x="725" y="508"/>
      <point x="766" y="427"/>
      <point x="766" y="274" type="curve" smooth="yes"/>
      <point x="766" y="17"/>
      <point x="704" y="-71"/>
      <point x="488" y="-71" type="curve" smooth="yes"/>
      <point x="325" y="-71" type="line" smooth="yes"/>
      <point x="187" y="-71"/>
      <point x="60" y="-95"/>
      <point x="60" y="-204" type="curve" smooth="yes"/>
      <point x="60" y="-284"/>
      <point x="128" y="-312"/>
    </contour>
  </outline>
</glyph>
<glyph name="va-tamil" format="2">
  <advance width="1284"/>
  <unicode hex="0BB5"/>
  <note>
uni0BB5
</note>
  <anchor x="676" y="0" name="bottom"/>
  <anchor x="1013" y="584" name="imatra"/>
  <anchor x="667" y="0" name="nukta"/>
  <anchor x="655" y="584" name="top"/>
  <anchor x="648" y="584" name="vedic"/>
  <outline>
    <contour>
      <point x="311" y="-5" type="curve" smooth="yes"/>
      <point x="461" y="-5"/>
      <point x="546" y="68"/>
      <point x="546" y="189" type="curve" smooth="yes"/>
      <point x="546" y="284"/>
      <point x="479" y="354"/>
      <point x="364" y="354" type="curve" smooth="yes"/>
      <point x="212" y="354"/>
      <point x="137" y="234"/>
      <point x="140" y="123" type="curve"/>
      <point x="194" y="92" type="line"/>
      <point x="199" y="169"/>
      <point x="234" y="230"/>
      <point x="294" y="230" type="curve" smooth="yes"/>
      <point x="325" y="230"/>
      <point x="359" y="210"/>
      <point x="359" y="166" type="curve" smooth="yes"/>
      <point x="359" y="118"/>
      <point x="326" y="88"/>
      <point x="270" y="88" type="curve" smooth="yes"/>
      <point x="208" y="88"/>
      <point x="131" y="147"/>
      <point x="131" y="258" type="curve" smooth="yes"/>
      <point x="131" y="410"/>
      <point x="247" y="504"/>
      <point x="398" y="504" type="curve" smooth="yes"/>
      <point x="548" y="504"/>
      <point x="675" y="420"/>
      <point x="675" y="265" type="curve" smooth="yes"/>
      <point x="675" y="176"/>
      <point x="650" y="113"/>
      <point x="610" y="50" type="curve"/>
      <point x="636" y="0" type="line"/>
      <point x="1211" y="0" type="line"/>
      <point x="1211" y="584" type="line"/>
      <point x="993" y="584" type="line"/>
      <point x="993" y="75" type="line"/>
      <point x="767" y="75" type="line"/>
      <point x="844" y="136"/>
      <point x="885" y="197"/>
      <point x="885" y="297" type="curve" smooth="yes"/>
      <point x="885" y="494"/>
      <point x="688" y="589"/>
      <point x="466" y="589" type="curve" smooth="yes"/>
      <point x="214" y="589"/>
      <point x="49" y="465"/>
      <point x="49" y="259" type="curve" smooth="yes"/>
      <point x="49" y="116"/>
      <point x="155" y="-5"/>
    </contour>
  </outline>
</glyph>
<glyph name="ssa-tamil" format="2">
  <advance width="1751"/>
  <unicode hex="0BB7"/>
  <note>
uni0BB7
</note>
  <anchor x="879" y="0" name="bottom"/>
  <anchor x="727" y="0" name="nukta"/>
  <anchor x="910" y="584" name="top"/>
  <anchor x="879" y="584" name="vedic"/>
  <outline>
    <contour>
      <point x="311" y="-5" type="curve" smooth="yes"/>
      <point x="461" y="-5"/>
      <point x="546" y="68"/>
      <point x="546" y="189" type="curve" smooth="yes"/>
      <point x="546" y="284"/>
      <point x="479" y="354"/>
      <point x="364" y="354" type="curve" smooth="yes"/>
      <point x="212" y="354"/>
      <point x="137" y="234"/>
      <point x="140" y="123" type="curve"/>
      <point x="194" y="92" type="line"/>
      <point x="199" y="169"/>
      <point x="234" y="230"/>
      <point x="294" y="230" type="curve" smooth="yes"/>
      <point x="325" y="230"/>
      <point x="359" y="210"/>
      <point x="359" y="166" type="curve" smooth="yes"/>
      <point x="359" y="118"/>
      <point x="326" y="88"/>
      <point x="270" y="88" type="curve" smooth="yes"/>
      <point x="208" y="88"/>
      <point x="131" y="147"/>
      <point x="131" y="258" type="curve" smooth="yes"/>
      <point x="131" y="410"/>
      <point x="247" y="504"/>
      <point x="398" y="504" type="curve" smooth="yes"/>
      <point x="548" y="504"/>
      <point x="675" y="420"/>
      <point x="675" y="265" type="curve" smooth="yes"/>
      <point x="675" y="176"/>
      <point x="650" y="113"/>
      <point x="610" y="50" type="curve"/>
      <point x="636" y="0" type="line"/>
      <point x="1708" y="0" type="line"/>
      <point x="1708" y="347" type="line"/>
      <point x="1489" y="304" type="line"/>
      <point x="1489" y="75" type="line"/>
      <point x="767" y="75" type="line"/>
      <point x="844" y="136"/>
      <point x="885" y="197"/>
      <point x="885" y="297" type="curve" smooth="yes"/>
      <point x="885" y="494"/>
      <point x="688" y="589"/>
      <point x="466" y="589" type="curve" smooth="yes"/>
      <point x="214" y="589"/>
      <point x="49" y="465"/>
      <point x="49" y="259" type="curve" smooth="yes"/>
      <point x="49" y="116"/>
      <point x="155" y="-5"/>
    </contour>
    <contour>
      <point x="1163" y="-335" type="line"/>
      <point x="1374" y="-335" type="line"/>
      <point x="1374" y="371" type="line" smooth="yes"/>
      <point x="1374" y="508"/>
      <point x="1311" y="589"/>
      <point x="1174" y="589" type="curve" smooth="yes"/>
      <point x="1025" y="589"/>
      <point x="979" y="488"/>
      <point x="979" y="403" type="curve" smooth="yes"/>
      <point x="979" y="252"/>
      <point x="1122" y="192"/>
      <point x="1263" y="192" type="curve" smooth="yes"/>
      <point x="1417" y="192"/>
      <point x="1565" y="262"/>
      <point x="1708" y="342" type="curve"/>
      <point x="1708" y="352" type="line"/>
      <point x="1649" y="416" type="line"/>
      <point x="1521" y="332"/>
      <point x="1366" y="268"/>
      <point x="1257" y="268" type="curve" smooth="yes"/>
      <point x="1167" y="268"/>
      <point x="1059" y="298"/>
      <point x="1059" y="408" type="curve" smooth="yes"/>
      <point x="1059" y="450"/>
      <point x="1080" y="473"/>
      <point x="1110" y="473" type="curve" smooth="yes"/>
      <point x="1146" y="473"/>
      <point x="1163" y="440"/>
      <point x="1163" y="388" type="curve" smooth="yes"/>
    </contour>
  </outline>
</glyph>
<glyph name="aaMatra-tamil" format="2">
  <advance width="704"/>
  <unicode hex="0BBE"/>
  <note>
uni0BBE
</note>
  <anchor x="368" y="0" name="bottom"/>
  <anchor x="367" y="0" name="nukta"/>
  <anchor x="361" y="584" name="top"/>
  <anchor x="361" y="584" name="vedic"/>
  <outline>
    <contour>
      <point x="73" y="0" type="line"/>
      <point x="157" y="0" type="line"/>
      <point x="157" y="509" type="line"/>
      <point x="342" y="509" type="line"/>
      <point x="342" y="0" type="line"/>
      <point x="563" y="0" type="line"/>
      <point x="563" y="509" type="line"/>
      <point x="692" y="509" type="line"/>
      <point x="692" y="584" type="line"/>
      <point x="73" y="584" type="line"/>
    </contour>
  </outline>
</glyph>
<glyph name="iMatra-tamil" format="2">
  <advance width="244"/>
  <unicode hex="0BBF"/>
  <note>
uni0BBF
</note>
  <anchor x="-191" y="910" name="top"/>
  <outline>
    <contour>
      <point x="76" y="0" type="line"/>
      <point x="164" y="0" type="line"/>
      <point x="164" y="571" type="line" smooth="yes"/>
      <point x="164" y="823"/>
      <point x="-9" y="910"/>
      <point x="-191" y="910" type="curve" smooth="yes"/>
      <point x="-357" y="910"/>
      <point x="-469" y="817"/>
      <point x="-469" y="692" type="curve" smooth="yes"/>
      <point x="-469" y="583"/>
      <point x="-396" y="513"/>
      <point x="-268" y="513" type="curve" smooth="yes"/>
      <point x="-266" y="513" type="line"/>
      <point x="-266" y="583" type="line"/>
      <point x="-268" y="583" type="line" smooth="yes"/>
      <point x="-315" y="583"/>
      <point x="-356" y="607"/>
      <point x="-356" y="657" type="curve" smooth="yes"/>
      <point x="-356" y="705"/>
      <point x="-301" y="756"/>
      <point x="-186" y="756" type="curve" smooth="yes"/>
      <point x="-48" y="756"/>
      <point x="76" y="691"/>
      <point x="76" y="514" type="curve" smooth="yes"/>
    </contour>
  </outline>
</glyph>
<glyph name="iiMatra-tamil" format="2">
  <unicode hex="0BC0"/>
  <note>
uni0BC0
</note>
  <anchor x="0" y="584" name="_imatra"/>
  <anchor x="11" y="945" name="top"/>
  <outline>
    <contour>
      <point x="-42" y="509" type="curve" smooth="yes"/>
      <point x="0" y="509" type="line"/>
      <point x="0" y="584" type="line"/>
      <point x="-33" y="584" type="line" smooth="yes"/>
      <point x="-109" y="584"/>
      <point x="-180" y="625"/>
      <point x="-180" y="720" type="curve" smooth="yes"/>
      <point x="-180" y="805"/>
      <point x="-107" y="862"/>
      <point x="-7" y="862" type="curve" smooth="yes"/>
      <point x="49" y="862"/>
      <point x="92" y="834"/>
      <point x="92" y="783" type="curve" smooth="yes"/>
      <point x="92" y="744"/>
      <point x="67" y="716"/>
      <point x="23" y="716" type="curve" smooth="yes"/>
      <point x="-45" y="716"/>
      <point x="-65" y="802"/>
      <point x="-19" y="888" type="curve"/>
      <point x="-77" y="893" type="line"/>
      <point x="-155" y="769"/>
      <point x="-109" y="616"/>
      <point x="66" y="616" type="curve" smooth="yes"/>
      <point x="166" y="616"/>
      <point x="250" y="667"/>
      <point x="250" y="767" type="curve" smooth="yes"/>
      <point x="250" y="878"/>
      <point x="151" y="945"/>
      <point x="11" y="945" type="curve" smooth="yes"/>
      <point x="-158" y="945"/>
      <point x="-266" y="836"/>
      <point x="-266" y="724" type="curve" smooth="yes"/>
      <point x="-266" y="586"/>
      <point x="-184" y="509"/>
    </contour>
  </outline>
</glyph>
<glyph name="uMatra-tamil" format="2">
  <advance width="632"/>
  <unicode hex="0BC1"/>
  <note>
uni0BC1
</note>
  <anchor x="251" y="584" name="top"/>
  <outline>
    <contour>
      <point x="366" y="233" type="curve" smooth="yes"/>
      <point x="511" y="233"/>
      <point x="607" y="309"/>
      <point x="607" y="445" type="curve" smooth="yes"/>
      <point x="607" y="584" type="line"/>
      <point x="-320" y="584" type="line"/>
      <point x="-253" y="509" type="line"/>
      <point x="385" y="509" type="line"/>
      <point x="385" y="421" type="line" smooth="yes"/>
      <point x="385" y="356"/>
      <point x="356" y="323"/>
      <point x="309" y="323" type="curve" smooth="yes"/>
      <point x="259" y="323"/>
      <point x="234" y="364"/>
      <point x="234" y="437" type="curve" smooth="yes"/>
      <point x="234" y="534" type="line"/>
      <point x="149" y="534" type="line"/>
      <point x="149" y="440" type="line" smooth="yes"/>
      <point x="149" y="315"/>
      <point x="220" y="233"/>
    </contour>
  </outline>
</glyph>
<glyph name="eeMatra-tamil" format="2">
  <advance width="718"/>
  <unicode hex="0BC7"/>
  <note>
uni0BC7
</note>
  <outline>
    <contour>
      <point x="441" y="-5" type="curve" smooth="yes"/>
      <point x="589" y="-5"/>
      <point x="677" y="63"/>
      <point x="677" y="184" type="curve" smooth="yes"/>
      <point x="677" y="279"/>
      <point x="609" y="354"/>
      <point x="494" y="354" type="curve" smooth="yes"/>
      <point x="343" y="354"/>
      <point x="272" y="224"/>
      <point x="275" y="113" type="curve"/>
      <point x="330" y="82" type="line"/>
      <point x="334" y="160"/>
      <point x="364" y="230"/>
      <point x="424" y="230" type="curve" smooth="yes"/>
      <point x="456" y="230"/>
      <point x="489" y="210"/>
      <point x="489" y="166" type="curve" smooth="yes"/>
      <point x="489" y="118"/>
      <point x="457" y="88"/>
      <point x="400" y="88" type="curve" smooth="yes"/>
      <point x="270" y="88"/>
      <point x="139" y="210"/>
      <point x="139" y="433" type="curve" smooth="yes"/>
      <point x="139" y="655"/>
      <point x="270" y="820"/>
      <point x="400" y="820" type="curve" smooth="yes"/>
      <point x="457" y="820"/>
      <point x="489" y="791"/>
      <point x="489" y="742" type="curve" smooth="yes"/>
      <point x="489" y="698"/>
      <point x="456" y="678"/>
      <point x="424" y="678" type="curve" smooth="yes"/>
      <point x="364" y="678"/>
      <point x="334" y="749"/>
      <point x="330" y="826" type="curve"/>
      <point x="275" y="795" type="line"/>
      <point x="272" y="684"/>
      <point x="343" y="554"/>
      <point x="494" y="554" type="curve" smooth="yes"/>
      <point x="609" y="554"/>
      <point x="677" y="629"/>
      <point x="677" y="724" type="curve" smooth="yes"/>
      <point x="677" y="845"/>
      <point x="589" y="913"/>
      <point x="441" y="913" type="curve" smooth="yes"/>
      <point x="210" y="913"/>
      <point x="54" y="689"/>
      <point x="54" y="434" type="curve" smooth="yes"/>
      <point x="54" y="178"/>
      <point x="210" y="-5"/>
    </contour>
  </outline>
</glyph>
<glyph name="one-tamil" format="2">
  <advance width="999"/>
  <unicode hex="0BE7"/>
  <note>
uni0BE7
</note>
  <outline>
    <contour>
      <point x="305" y="-4" type="curve" smooth="yes"/>
      <point x="505" y="-4"/>
      <point x="610" y="103"/>
      <point x="610" y="240" type="curve" smooth="yes"/>
      <point x="610" y="272" type="line"/>
      <point x="626" y="272" type="line" smooth="yes"/>
      <point x="692" y="272"/>
      <point x="739" y="247"/>
      <point x="739" y="178" type="curve" smooth="yes"/>
      <point x="739" y="106"/>
      <point x="696" y="83"/>
      <point x="648" y="83" type="curve" smooth="yes"/>
      <point x="600" y="83"/>
      <point x="576" y="105"/>
      <point x="547" y="142" type="curve"/>
      <point x="496" y="88" type="line"/>
      <point x="542" y="30"/>
      <point x="609" y="-5"/>
      <point x="701" y="-5" type="curve" smooth="yes"/>
      <point x="826" y="-5"/>
      <point x="945" y="38"/>
      <point x="945" y="168" type="curve" smooth="yes"/>
      <point x="945" y="300"/>
      <point x="822" y="348"/>
      <point x="640" y="348" type="curve" smooth="yes"/>
      <point x="610" y="348" type="line"/>
      <point x="610" y="508" type="line"/>
      <point x="767" y="508" type="line"/>
      <point x="767" y="584" type="line"/>
      <point x="168" y="584" type="line"/>
      <point x="168" y="310" type="line"/>
      <point x="253" y="310" type="line"/>
      <point x="253" y="508" type="line"/>
      <point x="391" y="508" type="line"/>
      <point x="391" y="348" type="line"/>
      <point x="256" y="348" type="line" smooth="yes"/>
      <point x="147" y="348"/>
      <point x="54" y="278"/>
      <point x="54" y="179" type="curve" smooth="yes"/>
      <point x="54" y="73"/>
      <point x="129" y="-4"/>
    </contour>
    <contour>
      <point x="250" y="83" type="curve" smooth="yes"/>
      <point x="191" y="83"/>
      <point x="133" y="112"/>
      <point x="133" y="175" type="curve" smooth="yes"/>
      <point x="133" y="230"/>
      <point x="173" y="272"/>
      <point x="255" y="272" type="curve" smooth="yes"/>
      <point x="391" y="272" type="line"/>
      <point x="391" y="229" type="line" smooth="yes"/>
      <point x="391" y="129"/>
      <point x="338" y="83"/>
    </contour>
  </outline>
</glyph>
<glyph name="eight-tamil" format="2">
  <advance width="1515"/>
  <unicode hex="0BEE"/>
  <note>
uni0BEE
</note>
  <outline>
    <contour>
      <point x="1225" y="-275" type="line"/>
      <point x="1442" y="-275" type="line"/>
      <point x="1442" y="584" type="line"/>
      <point x="1225" y="584" type="line"/>
      <point x="1225" y="148" type="line"/>
      <point x="127" y="148" type="line" smooth="yes"/>
      <point x="66" y="148"/>
      <point x="22" y="108"/>
      <point x="22" y="64" type="curve" smooth="yes"/>
      <point x="22" y="-96"/>
      <point x="262" y="-190"/>
      <point x="473" y="-190" type="curve" smooth="yes"/>
      <point x="766" y="-190"/>
      <point x="1102" y="-91"/>
      <point x="1102" y="235" type="curve" smooth="yes"/>
      <point x="1102" y="438"/>
      <point x="949" y="589"/>
      <point x="700" y="589" type="curve" smooth="yes"/>
      <point x="484" y="589"/>
      <point x="392" y="459"/>
      <point x="392" y="314" type="curve" smooth="yes"/>
      <point x="392" y="236"/>
      <point x="419" y="178"/>
      <point x="466" y="116" type="curve"/>
      <point x="557" y="115" type="line"/>
      <point x="501" y="178"/>
      <point x="476" y="225"/>
      <point x="476" y="305" type="curve" smooth="yes"/>
      <point x="476" y="439"/>
      <point x="558" y="512"/>
      <point x="667" y="512" type="curve" smooth="yes"/>
      <point x="804" y="512"/>
      <point x="899" y="432"/>
      <point x="899" y="248" type="curve" smooth="yes"/>
      <point x="899" y="-33"/>
      <point x="688" y="-115"/>
      <point x="456" y="-115" type="curve" smooth="yes"/>
      <point x="282" y="-115"/>
      <point x="117" y="-37"/>
      <point x="117" y="44" type="curve" smooth="yes"/>
      <point x="117" y="63"/>
      <point x="128" y="72"/>
      <point x="155" y="72" type="curve" smooth="yes"/>
      <point x="1225" y="72" type="line"/>
    </contour>
  </outline>
</glyph>
<glyph name="nine-tamil" format="2">
  <advance width="1418"/>
  <unicode hex="0BEF"/>
  <note>
uni0BEF
</note>
  <outline>
    <contour>
      <point x="1163" y="-21" type="line"/>
      <point x="1286" y="6"/>
      <point x="1384" y="67"/>
      <point x="1384" y="203" type="curve" smooth="yes"/>
      <point x="1384" y="373"/>
      <point x="1206" y="447"/>
      <point x="1033" y="447" type="curve" smooth="yes"/>
      <point x="813" y="447"/>
      <point x="685" y="326"/>
      <point x="685" y="183" type="curve" smooth="yes"/>
      <point x="685" y="71"/>
      <point x="751" y="-4"/>
      <point x="880" y="-4" type="curve" smooth="yes"/>
      <point x="990" y="-4"/>
      <point x="1074" y="59"/>
      <point x="1074" y="163" type="curve" smooth="yes"/>
      <point x="1074" y="287"/>
      <point x="963" y="348"/>
      <point x="808" y="348" type="curve" smooth="yes"/>
      <point x="610" y="348" type="line"/>
      <point x="610" y="508" type="line"/>
      <point x="769" y="508" type="line"/>
      <point x="769" y="584" type="line"/>
      <point x="168" y="584" type="line"/>
      <point x="168" y="307" type="line"/>
      <point x="253" y="307" type="line"/>
      <point x="253" y="508" type="line"/>
      <point x="391" y="508" type="line"/>
      <point x="391" y="348" type="line"/>
      <point x="259" y="348" type="line" smooth="yes"/>
      <point x="146" y="348"/>
      <point x="54" y="287"/>
      <point x="54" y="184" type="curve" smooth="yes"/>
      <point x="54" y="78"/>
      <point x="127" y="-4"/>
      <point x="304" y="-4" type="curve" smooth="yes"/>
      <point x="503" y="-4"/>
      <point x="610" y="103"/>
      <point x="610" y="240" type="curve" smooth="yes"/>
      <point x="610" y="272" type="line"/>
      <point x="779" y="272" type="line" smooth="yes"/>
      <point x="856" y="272"/>
      <point x="906" y="229"/>
      <point x="906" y="158" type="curve" smooth="yes"/>
      <point x="906" y="108"/>
      <point x="873" y="84"/>
      <point x="841" y="84" type="curve" smooth="yes"/>
      <point x="805" y="84"/>
      <point x="763" y="115"/>
      <point x="763" y="186" type="curve" smooth="yes"/>
      <point x="763" y="291"/>
      <point x="864" y="366"/>
      <point x="984" y="366" type="curve" smooth="yes"/>
      <point x="1073" y="366"/>
      <point x="1190" y="331"/>
      <point x="1190" y="189" type="curve" smooth="yes"/>
      <point x="1190" y="117"/>
      <point x="1163" y="74"/>
      <point x="1125" y="35" type="curve"/>
    </contour>
    <contour>
      <point x="250" y="83" type="curve" smooth="yes"/>
      <point x="182" y="83"/>
      <point x="133" y="117"/>
      <point x="133" y="180" type="curve" smooth="yes"/>
      <point x="133" y="235"/>
      <point x="176" y="272"/>
      <point x="258" y="272" type="curve" smooth="yes"/>
      <point x="391" y="272" type="line"/>
      <point x="391" y="229" type="line" smooth="yes"/>
      <point x="391" y="129"/>
      <point x="338" y="83"/>
    </contour>
  </outline>
</glyph>
<glyph name="debit-tamil" format="2">
  <advance width="1406"/>
  <unicode hex="0BF6"/>
  <note>
uni0BF6
</note>
  <outline>
    <contour>
      <point x="428" y="-394" type="curve" smooth="yes"/>
      <point x="739" y="-394"/>
      <point x="932" y="-225"/>
      <point x="932" y="-5" type="curve" smooth="yes"/>
      <point x="932" y="584" type="line"/>
      <point x="714" y="584" type="line"/>
      <point x="714" y="0" type="line" smooth="yes"/>
      <point x="714" y="-239"/>
      <point x="584" y="-319"/>
      <point x="397" y="-319" type="curve" smooth="yes"/>
      <point x="232" y="-319"/>
      <point x="120" y="-235"/>
      <point x="120" y="-163" type="curve" smooth="yes"/>
      <point x="120" y="-145"/>
      <point x="131" y="-134"/>
      <point x="158" y="-134" type="curve" smooth="yes"/>
      <point x="1333" y="-134" type="line"/>
      <point x="1333" y="584" type="line"/>
      <point x="1115" y="584" type="line"/>
      <point x="1115" y="-59" type="line"/>
      <point x="130" y="-59" type="line" smooth="yes"/>
      <point x="65" y="-59"/>
      <point x="27" y="-97"/>
      <point x="27" y="-145" type="curve" smooth="yes"/>
      <point x="27" y="-300"/>
      <point x="212" y="-394"/>
    </contour>
    <contour>
      <point x="73" y="12" type="line"/>
      <point x="825" y="12" type="line"/>
      <point x="825" y="87" type="line"/>
      <point x="293" y="87" type="line"/>
      <point x="293" y="584" type="line"/>
      <point x="73" y="584" type="line"/>
    </contour>
  </outline>
</glyph>
<glyph name="asabove-tamil" format="2">
  <advance width="2192"/>
  <unicode hex="0BF8"/>
  <note>
uni0BF8
</note>
  <outline>
    <contour>
      <point x="851" y="-4" type="curve" smooth="yes"/>
      <point x="996" y="-4"/>
      <point x="1087" y="92"/>
      <point x="1087" y="254" type="curve" smooth="yes"/>
      <point x="1087" y="510"/>
      <point x="835" y="668"/>
      <point x="519" y="668" type="curve" smooth="yes"/>
      <point x="247" y="668"/>
      <point x="49" y="514"/>
      <point x="49" y="279" type="curve" smooth="yes"/>
      <point x="49" y="121"/>
      <point x="155" y="-5"/>
      <point x="311" y="-5" type="curve" smooth="yes"/>
      <point x="461" y="-5"/>
      <point x="546" y="68"/>
      <point x="546" y="189" type="curve" smooth="yes"/>
      <point x="546" y="284"/>
      <point x="479" y="354"/>
      <point x="364" y="354" type="curve" smooth="yes"/>
      <point x="212" y="354"/>
      <point x="140" y="237"/>
      <point x="140" y="123" type="curve"/>
      <point x="194" y="92" type="line"/>
      <point x="199" y="169"/>
      <point x="234" y="230"/>
      <point x="294" y="230" type="curve" smooth="yes"/>
      <point x="325" y="230"/>
      <point x="359" y="210"/>
      <point x="359" y="166" type="curve" smooth="yes"/>
      <point x="359" y="118"/>
      <point x="326" y="88"/>
      <point x="270" y="88" type="curve" smooth="yes"/>
      <point x="208" y="88"/>
      <point x="131" y="152"/>
      <point x="131" y="278" type="curve" smooth="yes"/>
      <point x="131" y="462"/>
      <point x="289" y="588"/>
      <point x="493" y="588" type="curve" smooth="yes"/>
      <point x="738" y="588"/>
      <point x="898" y="421"/>
      <point x="898" y="239" type="curve" smooth="yes"/>
      <point x="898" y="147"/>
      <point x="864" y="94"/>
      <point x="805" y="94" type="curve" smooth="yes"/>
      <point x="753" y="94"/>
      <point x="720" y="149"/>
      <point x="720" y="224" type="curve" smooth="yes"/>
      <point x="720" y="400"/>
      <point x="854" y="504"/>
      <point x="1009" y="504" type="curve" smooth="yes"/>
      <point x="1137" y="504"/>
      <point x="1254" y="420"/>
      <point x="1254" y="265" type="curve" smooth="yes"/>
      <point x="1254" y="176"/>
      <point x="1230" y="113"/>
      <point x="1190" y="50" type="curve"/>
      <point x="1216" y="0" type="line"/>
      <point x="2177" y="0" type="line"/>
      <point x="2177" y="75" type="line"/>
      <point x="1307" y="75" type="line"/>
      <point x="1329" y="57" type="line"/>
      <point x="1407" y="121"/>
      <point x="1445" y="187"/>
      <point x="1445" y="297" type="curve" smooth="yes"/>
      <point x="1445" y="484"/>
      <point x="1281" y="589"/>
      <point x="1058" y="589" type="curve" smooth="yes"/>
      <point x="788" y="589"/>
      <point x="638" y="430"/>
      <point x="638" y="229" type="curve" smooth="yes"/>
      <point x="638" y="105"/>
      <point x="701" y="-4"/>
    </contour>
    <contour>
      <point x="1810" y="-335" type="line"/>
      <point x="2022" y="-335" type="line"/>
      <point x="2022" y="406" type="line" smooth="yes"/>
      <point x="2022" y="523"/>
      <point x="1948" y="590"/>
      <point x="1821" y="590" type="curve" smooth="yes"/>
      <point x="1643" y="590"/>
      <point x="1550" y="450"/>
      <point x="1550" y="297" type="curve" smooth="yes"/>
      <point x="1550" y="148"/>
      <point x="1651" y="16"/>
      <point x="1804" y="16" type="curve"/>
      <point x="1804" y="75" type="line"/>
      <point x="1694" y="75"/>
      <point x="1629" y="182"/>
      <point x="1629" y="306" type="curve" smooth="yes"/>
      <point x="1629" y="416"/>
      <point x="1695" y="471"/>
      <point x="1747" y="471" type="curve" smooth="yes"/>
      <point x="1785" y="471"/>
      <point x="1810" y="448"/>
      <point x="1810" y="409" type="curve" smooth="yes"/>
    </contour>
  </outline>
</glyph>
<glyph name="endash" format="2">
  <advance width="500"/>
  <unicode hex="2013"/>
  <outline>
    <contour>
      <point x="-5" y="229" type="line"/>
      <point x="505" y="229" type="line"/>
      <point x="505" y="308" type="line"/>
      <point x="-5" y="308" type="line"/>
    </contour>
  </outline>
</glyph>
<glyph name="quoteright" format="2">
  <advance width="302"/>
  <unicode hex="2019"/>
  <outline>
    <contour>
      <point x="56" y="391" type="line"/>
      <point x="194" y="426"/>
      <point x="246" y="502"/>
      <point x="246" y="587" type="curve" smooth="yes"/>
      <point x="246" y="664"/>
      <point x="210" y="714"/>
      <point x="143" y="714" type="curve" smooth="yes"/>
      <point x="99" y="714"/>
      <point x="66" y="688"/>
      <point x="66" y="638" type="curve" smooth="yes"/>
      <point x="66" y="544"/>
      <point x="139" y="556"/>
      <point x="139" y="520" type="curve"/>
      <point x="139" y="481"/>
      <point x="109" y="471"/>
      <point x="56" y="450" type="curve"/>
    </contour>
  </outline>
</glyph>
<glyph name="vii-tamil" format="2">
  <advance width="1284"/>
  <note>
g142
</note>
  <anchor x="627" y="0" name="bottom"/>
  <anchor x="627" y="0" name="nukta"/>
  <anchor x="1026" y="945" name="top"/>
  <anchor x="638" y="584" name="vedic"/>
  <anchor x="1013" y="584" name="imatra"/>
  <outline>
    <contour>
      <point x="995" y="509" type="curve" smooth="yes"/>
      <point x="1037" y="509" type="line"/>
      <point x="1037" y="584" type="line"/>
      <point x="1003" y="584" type="line" smooth="yes"/>
      <point x="924" y="584"/>
      <point x="847" y="627"/>
      <point x="847" y="723" type="curve" smooth="yes"/>
      <point x="847" y="806"/>
      <point x="912" y="864"/>
      <point x="1014" y="864" type="curve" smooth="yes"/>
      <point x="1072" y="864"/>
      <point x="1120" y="838"/>
      <point x="1120" y="782" type="curve" smooth="yes"/>
      <point x="1120" y="747"/>
      <point x="1097" y="716"/>
      <point x="1053" y="716" type="curve" smooth="yes"/>
      <point x="984" y="716"/>
      <point x="963" y="802"/>
      <point x="1009" y="888" type="curve"/>
      <point x="951" y="893" type="line"/>
      <point x="872" y="768"/>
      <point x="918" y="613"/>
      <point x="1099" y="613" type="curve" smooth="yes"/>
      <point x="1189" y="613"/>
      <point x="1277" y="664"/>
      <point x="1277" y="764" type="curve" smooth="yes"/>
      <point x="1277" y="882"/>
      <point x="1171" y="945"/>
      <point x="1026" y="945" type="curve" smooth="yes"/>
      <point x="860" y="945"/>
      <point x="761" y="837"/>
      <point x="761" y="727" type="curve" smooth="yes"/>
      <point x="761" y="586"/>
      <point x="853" y="509"/>
    </contour>
    <component base="va-tamil"/>
  </outline>
</glyph>
